/* XPM */
static char *_f7cbce848764c1fbc65b9daf2523edci6u7mV2GE2fszgdc[] = {
/* columns rows colors chars-per-pixel */
"64 64 240 2 ",
"   c None",
".  c #130A06",
"X  c #150C0A",
"o  c #190E0B",
"O  c #150607",
"+  c #1B120E",
"@  c #1D1411",
"#  c #0F0605",
"$  c #221612",
"%  c #231A15",
"&  c #261C19",
"*  c #2A1E1A",
"=  c #2A1B16",
"-  c #36191A",
";  c #290F13",
":  c #2B221B",
">  c #292017",
",  c #32261E",
"<  c #36261D",
"1  c #2D2421",
"2  c #342B23",
"3  c #392E24",
"4  c #372926",
"5  c #3C3126",
"6  c #3D332A",
"7  c #3E382D",
"8  c #3F3732",
"9  c #3A0C20",
"0  c #46151D",
"q  c #41281D",
"w  c #4C1A24",
"e  c #481727",
"r  c #561E2C",
"t  c #561D29",
"y  c #561E31",
"u  c #4A2A27",
"i  c #5A212E",
"p  c #52252A",
"a  c #42352C",
"s  c #4E332B",
"d  c #44392D",
"f  c #4C382A",
"g  c #5D2433",
"h  c #5D2B34",
"j  c #443B32",
"k  c #4A3E32",
"l  c #453B38",
"z  c #543D33",
"x  c #593B37",
"c  c #53322D",
"v  c #62252D",
"b  c #622634",
"n  c #642934",
"m  c #6C2B35",
"M  c #662A3A",
"N  c #6C2D3B",
"B  c #722D3D",
"V  c #722E37",
"C  c #653535",
"Z  c #75313D",
"A  c #7B333E",
"S  c #733C37",
"D  c #67392F",
"F  c #4C4235",
"G  c #4C433A",
"H  c #52463A",
"J  c #58473B",
"K  c #63433D",
"L  c #674539",
"P  c #7B493D",
"I  c #732E41",
"U  c #753241",
"Y  c #7C3443",
"T  c #7F3943",
"R  c #7D3847",
"E  c #6F3543",
"W  c #5A4D42",
"Q  c #594C43",
"!  c #5D5344",
"~  c #694A44",
"^  c #744A48",
"/  c #625649",
"(  c #64594B",
")  c #68584A",
"_  c #795449",
"`  c #675954",
"'  c #795852",
"]  c #6C6253",
"[  c #756659",
"{  c #726654",
"}  c #7A7075",
"|  c #804B3F",
" . c #823A45",
".. c #843B4A",
"X. c #8A3E4C",
"o. c #803747",
"O. c #8B3F4F",
"+. c #8B424E",
"@. c #874648",
"#. c #91444A",
"$. c #875949",
"%. c #995D4E",
"&. c #8D4353",
"*. c #944452",
"=. c #984655",
"-. c #944955",
";. c #9C4B5A",
":. c #964758",
">. c #885D57",
",. c #995A57",
"<. c #A24D5D",
"1. c #A4505F",
"2. c #896659",
"3. c #94665C",
"4. c #986756",
"5. c #9B725A",
"6. c #91634E",
"7. c #A76B57",
"8. c #B0715A",
"9. c #A74F60",
"0. c #A65362",
"q. c #AB5464",
"w. c #A95967",
"e. c #B35A6B",
"r. c #B55A6A",
"t. c #BD5F72",
"y. c #996D64",
"u. c #847569",
"i. c #9B7365",
"p. c #987368",
"a. c #91706A",
"s. c #AD6965",
"d. c #B3656C",
"f. c #AD7A6C",
"g. c #A77567",
"h. c #B57A64",
"j. c #B37D6C",
"k. c #B77868",
"l. c #BC6674",
"z. c #AB7A72",
"x. c #B77973",
"c. c #A76A77",
"v. c #965661",
"b. c #C66977",
"n. c #C67779",
"m. c #D6737C",
"M. c #D36E76",
"N. c #978879",
"B. c #A8866D",
"V. c #B9836B",
"C. c #A98379",
"Z. c #B58272",
"A. c #BC8374",
"S. c #BD8A7C",
"D. c #B98779",
"F. c #B59179",
"G. c #C68B6E",
"H. c #C38C7C",
"J. c #C78976",
"K. c #CD917C",
"L. c #C89478",
"P. c #D4947C",
"I. c #D89979",
"U. c #CF9077",
"Y. c #B97F8A",
"T. c #D87A86",
"R. c #C77685",
"E. c #A59683",
"W. c #BB9B87",
"Q. c #B6A392",
"!. c #ADA4A4",
"~. c #9E969B",
"^. c #CC8D83",
"/. c #C58882",
"(. c #D58A85",
"). c #C59182",
"_. c #CC9284",
"`. c #CD9B84",
"'. c #CC968A",
"]. c #CE998C",
"[. c #C59D86",
"{. c #D29B8D",
"}. c #D79788",
"|. c #D88997",
" X c #D39E90",
".X c #DC9D92",
"XX c #C79194",
"oX c #E69C96",
"OX c #C6A789",
"+X c #DAA387",
"@X c #C8A699",
"#X c #DBA393",
"$X c #D9A699",
"%X c #D8B398",
"&X c #D0B294",
"*X c #E2A583",
"=X c #E9AB88",
"-X c #EAB189",
";X c #F6B98D",
":X c #E3A395",
">X c #E4A69A",
",X c #E5AB9B",
"<X c #EAAB9D",
"1X c #E7A995",
"2X c #E9B49B",
"3X c #F5BA96",
"4X c #F0AC9D",
"5X c #DB9AA3",
"6X c #D6B4A6",
"7X c #E9ADA2",
"8X c #ECB3A3",
"9X c #EBB8A8",
"0X c #F2B3A5",
"qX c #F3B9AA",
"wX c #F6BAA8",
"eX c #F6BDB4",
"rX c #EABDB3",
"tX c #FBC494",
"yX c #FAC599",
"uX c #F2D09E",
"iX c #D9C2AE",
"pX c #E6C5AA",
"aX c #FAC3A2",
"sX c #FECCAB",
"dX c #F8C7A7",
"fX c #FCD3A7",
"gX c #E4C9B7",
"hX c #FBC4B4",
"jX c #FAC9B9",
"kX c #EAD2BA",
"lX c #FBD7B8",
"zX c #FCDCC4",
"xX c #FADAC9",
"cX c #F4D5CA",
"vX c #FCE6C8",
"bX c #FDE8D6",
"nX c #FDF4D7",
"mX c #FDF7E6",
"MX c #FFFEF7",
"NX c #DDD4C5",
/* pixels */
"                                                                                                                                ",
"                                                                                                                                ",
"                                                                                                                                ",
"                                                        ]                                                                       ",
"                                                    ] ! ] ] ( ! /                                                               ",
"                                                { [ ] H ( G H W W H d d                                                         ",
"                                            { ] ! G F F F j H Q H l 6 5 a k                                                     ",
"                                        N.] H 7 6 G H 7 j ` G j j G a 7 6 6 F J                                                 ",
"                                      N.{ 7 2 2 6 G G % 4 F 6 6 2 G l : 1 2 7 F F                                               ",
"                                  Q.Q.] 7 2 2 2 + & > @ 1 2 1 7 1 8 6 : @ @ 2 7 2 F                                             ",
"                                F.N.{ d 5 > % X # # + % 6 l l 2 1 1 1 1 @ X @ 2 7 5 F                                           ",
"                                N.u.f < > X # . @ . % 2 7 j 2 & @ & & & 1 & : @ 6 F F !                                         ",
"                              E.N.{ F > % + + @ > > 7 7 l 7 3 6 1 @ @ & 1 4 @ @ 2 d d H )                                       ",
"                              [ [ ] 3 > % @ > 1 1 1 7 2 1 4 6 4 1 & @ & 1 1 2 X @ : 6 2 H                                       ",
"                            ) J ( H 7 2 , : : F H : + > 1 * $ + @ @ @ @ 1 1 8 8 : % % , a F                                     ",
"                            ) H H H { ! F 5 5 3 7 1 > % & 1 1 % @ @ X X @ 4 6 8 : @ X % a F                                     ",
"                            J ] { ] ] ( J J ( J J F H d 2 2 , = - = ; + $ = > = & @ o X % 5                                     ",
"                          H F J { ] F F F H J J 2.' $.2._ C z f s s s 3 = = $ o $ + X . + > 3                                   ",
"                          H F F ( J F 5 F L J J 2.6.f.S.g.y.>.^ P L L D c q $ o o o X o + % 2                                   ",
"                        ] ! d 5 5 7 7 7 F 5.$._ 4.f.).#X XS.j.g.4.3.6.$._ D q ; . X X + % % 2                                   ",
"                          ! F 2 % : 2 f 2.L.B.F.}.#X,X2X8X:X_.J.x.f.g.7.5.$.L < o O o $ % > 5                                   ",
"                          ! G 2 $ : , H L.uX=X2XcXxXjXhXwX0X:X.X}.^.H.Z.B.8.$.D q $ . o + > 5                                   ",
"                          ( F > % * 1 W %XlXwXdXbXxXjXjXhX0X>X<X:X:X.XK.A.S.V.V.6.f o . @ : a                                   ",
"                            F : @ & 2 _ uXzXlXbXmXxXjXhXhXwX7X7X7X:X_.^._.&XuXfXtX5.- . % : f                                   ",
"                            J 2 : : 3 B.vXnXnXnXbXcXqX0X4X7XoX>XoX_.S.g.p.f.`.2XtX-XJ . o , F                                   ",
"                            ! j 2 % H 9XnXnXvXlX@XC.z.z.W. X.X(.x.3.^ K Q ~ { 6.5.i.L + o ,                                     ",
"                            ! F > % 2.vXnXiX6X[.z.[ ` ~ ^ 2.Y.x.$.~ ~ 2.i.i.g.V.H.z 2 @ , f                                     ",
"                            ( K 5 4 ` N.} W.%X6XXXC.y.v.>.x z l * J a.2.W ~ _ 5.OX' ! z D @.                                    ",
"                              #Xf.~ ` 8 [ pX`.C.[ H ~ $.y.>.x >.s K _ ~ a ~ _ 3.F.B.u.B.P 8.                                    ",
"                              M.x.) 6Xp.E.kXW.y.a.~ ' >.y.>.p.7X>.x >.g.y.g.+X2XL.W.p.&XD U.                                    ",
"                              m.x.~ gXgXC.cXnXpXXXW.c.x.E.v.XXbX@X~ 2.D.Z.D.+X`.`.6X&X&XD `.                                    ",
"                              :Xz.z iXnXQ.gXbXlX7X'.H..X.Xy.gXMXmXi._ D.S.S.S.f.S.W.uX%X$.                                      ",
"                                ).K &XMXNXQ.cXxXgXrX7X$Xx.XXbXMXMXiX%.g.j.B.y.z.{.aXlX&XB.                                      ",
"                                jXB.Q.nXmXrX5X6X6X6X'.J..X7XmXMXnXzXU.8.^.oX:XwXsXdXsX-X[.                                      ",
"                                bXiXQ.nXnXbXcXeXjXeX4XoX:XcXmXmXjXwX=X7.J.1X0XwXdXaXfX2X                                        ",
"                                  bX6XvXbXbXxXeX0X7XoX}.1X}.'.7X}.7.7.7.J.<X<X<X=X1XaXfX                                        ",
"                                    %XvXvXxXzXeX0X4X|.oX>Xn.(.(.x.%.%.h.K.:X:X}.}.+X3XsX                                        ",
"                                      vXzXeX0X0X0X7X:X0X9X7X,XJ.}.J.k.H.(.}.}.U.U.U.3X                                          ",
"                                      vXzXwX8X0X0X7X<X9XrX9X7X^.^.J.H.H.K.P.U.G.K.G.2X                                          ",
"                                        lXqX<X0X<X,X>X9X7X'.n.n.s.,.,.%.%.V.J.J.P.P.=X                                          ",
"                                        jXwX8X<X,X#XA.f.s.d.n.d.e.b.8.8.6.8.I.U.I.I.                                            ",
"                                          8X8X<X<X#X{.{.{.oXoX|.(.oX=XtXI.G.G.G.U.L.                                            ",
"                                          $X$X1X1X>X2XqX0X0X7X(.U.P.}.=XI.G.8.V.V.                                              ",
"                                            #X#X#X#X,X9X8X7X>X.X(.P.I.I.G.G.V.7.G.                                              ",
"                                              {.#X#X,X,X,X>X>X,XoX>XI.I.*X*XG.B.I.I.                                            ",
"                                              9X`.#X,X9X<X<X7X.X(.J.P.*X;X-XV.I.uXB.V                                           ",
"                                            J.lX6X{.$X9X9X9X>X^.J.k.J.+X*XG.V.I.tXI.J @.                                        ",
"                                            l.rXlX$X#X#X$X#X{./.A.k.k.g.7.%.G.tXtXuXP ^ #.,.                                    ",
"                                          w.q.R.vX9X$X{.'.D.f.z.7.%.%.$.$.7.I.tXtXfX4.D  .#.T |                                 ",
"                                        |.e.<.w.$XlX$X$X X'.Z.f.g.7.7.4.%.G.;X;XtXfX5.v T  . .T  .@.&.                          ",
"                                      5X|.t.<.<.s.pX9X#X X X]. X`.).J.j.8.G.=X;XtXtX5.t A A A A  . .T T +.-.                    ",
"                                  m.b.5X|.t.e.<.<.n.9X$X X]. X X{.{.P.G.8.G.-X;XtXtX6.t V A A v A T ..Y U +.-.-.-.              ",
"                                T.n.t.Y.XXr.q.<.;.<.V.'.]. X].].'.'._.H.V.U.I.;X;XtXP s m T A i v A  ...Z Z X.:.*.*.:.,.        ",
"                              l.b.t.q.0.Y.q.<.<.;.-.#.7.f.).'.].#X].`._.D.G.I.-X;X-X_ c D A T v 0 A A ..X.Z m o.:.:.*.-.,.      ",
"                            l.w.t.0.r.r.c.q.=.;.#.X.X.| $.5.Z.).'.`.'.).j.h.I.-XyX+XL C n A A m 0 m A Z X.+.U b U ;.-.*.;.w.    ",
"                          T.l.e.;.9.e.q.9.v.X.*.X.X...A S P 3.j.D.H.H.S.V.x.I.3XyXL.L K n Z A V t t  .A A +.X.U i N :.:.:.;.q.d.",
"                      T.T.T.r.A X.r.q.q.9.*.N B o. .o.Y m V ^ 6.g.Z.A.Z.V.S.-X3XaXj.~ ~ M N Z V v 0 B o.I o.O.o.E e I :.&.:.;.<.",
"                  T.b.T.T.l.q...X.<.9.q.q.O.b b V o.o.A Z V D | 4.g.j.Z.L.+X3XsXdXx.^ ^ C Z Z m v t i o.I I O.o...U e I ;.O.&.&.",
"                n.T.b.m.M.=.1.*.A O.<.<.q.X.A b r B o.Z A Z Z P $.7.V.+X3XaXsXlXvXE.>.^ h N N m m t w I o.B I ..R o.M e O.&.O...",
"                b.T.m.M.b.*.q.1.V X.<.<.9.<.m b e i Z Y o...*.+.@.h.3XdXlXsXsXlXbXE.>.^ h p p b b b w v o.o.B o.o.R R e y O...R ",
"                m.M.t.9.r.<.e.q.A X.<.=.<.;.V m n 0 i N ..*.*...E j.dXlXlXlXfXlXlXg.' ^ n 0 O w b b t y I Y I I R R I I 9 E O.I ",
"            T.R.M.<.<.r.e.;.e.r.X.A O.=.1.<.B t N h e g Y X.o.U N E @XcXcXvXzXlX}.>.^ E 0 0 0 i b b b i I Y I I I R I I 9 e R E ",
"        b.l.q.e.*.B O.<.1.O.<.e.<.m X.*.;.<.o.t n M n h M U E M p 6 } ~.!.gXlXfXf.^ ^ C w w w b y y b t M I I I I Y R I e 9 M E ",
"      T.b.q.1.-. .=.O.O.O.O.<.q.1.V A *.*.=...t b b E c.M m b 9 ; ; 1 ` ~.!.kXdX,.~ ^ g - i t t y b b t g I I I I I R I M 9 y g "
};
