/* XPM */
static char *aac9ff679498449f821622741e249ef3szO0TtWnGXJfyrIW[] = {
/* columns rows colors chars-per-pixel */
"64 64 256 2 ",
"   c None",
".  c #0C000A",
"X  c #15010A",
"o  c #1B030B",
"O  c #180409",
"+  c #180B12",
"@  c #280708",
"#  c #360808",
"$  c #2B120D",
"%  c #391509",
"&  c #2A0B14",
"*  c #2B1618",
"=  c #381717",
"-  c #360E11",
";  c #392119",
":  c #3B2824",
">  c #2F2A2D",
",  c #481806",
"<  c #571607",
"1  c #451A15",
"2  c #4C1007",
"3  c #671D0A",
"4  c #7E1F06",
"5  c #492309",
"6  c #5C270A",
"7  c #472519",
"8  c #56291A",
"9  c #59351B",
"0  c #5F380D",
"q  c #652807",
"w  c #7A2909",
"e  c #643408",
"r  c #793507",
"t  c #6A2914",
"y  c #78381A",
"u  c #6E3317",
"i  c #4A2A26",
"p  c #552E23",
"a  c #583528",
"s  c #583A34",
"d  c #4C352E",
"f  c #663A28",
"g  c #733C23",
"h  c #633F35",
"j  c #794609",
"k  c #794819",
"l  c #714A11",
"z  c #5C4333",
"x  c #6B432A",
"c  c #764527",
"v  c #6C4334",
"b  c #68473A",
"n  c #744A38",
"m  c #7A5438",
"M  c #725433",
"N  c #7C633E",
"B  c #584B4B",
"V  c #684B43",
"C  c #765649",
"Z  c #755B55",
"A  c #6B554F",
"S  c #776158",
"D  c #77624D",
"F  c #766A68",
"G  c #4E3E45",
"H  c #872804",
"J  c #942E03",
"K  c #942C06",
"L  c #8A3707",
"P  c #9B3402",
"I  c #963605",
"U  c #833B15",
"Y  c #A43B02",
"T  c #A93D03",
"R  c #A13701",
"E  c #85450B",
"W  c #984509",
"Q  c #874816",
"!  c #974914",
"~  c #865819",
"^  c #995616",
"/  c #92540A",
"(  c #AC4303",
")  c #AD4B05",
"_  c #A84607",
"`  c #B24C04",
"'  c #B14705",
"]  c #B55304",
"[  c #B95504",
"{  c #BC5B05",
"}  c #BC5D0B",
"|  c #B7550B",
" . c #A35917",
".. c #B65A15",
"X. c #A7500E",
"o. c #9C631B",
"O. c #88651E",
"+. c #BD630B",
"@. c #BA6508",
"#. c #A8651A",
"$. c #B76818",
"%. c #B8761A",
"&. c #B16E13",
"*. c #864A23",
"=. c #875627",
"-. c #985827",
";. c #875935",
":. c #8B6627",
">. c #996426",
",. c #896539",
"<. c #976839",
"1. c #97773B",
"2. c #93742F",
"3. c #A36424",
"4. c #A86928",
"5. c #B46C25",
"6. c #AD7427",
"7. c #BB752B",
"8. c #BC7A2B",
"9. c #B87626",
"0. c #A97438",
"q. c #B37C3C",
"w. c #B67935",
"e. c #A66A34",
"r. c #A75C21",
"t. c #C2660A",
"y. c #C26B13",
"u. c #C16A1A",
"i. c #C77818",
"p. c #C5770E",
"a. c #C47B2C",
"s. c #C57825",
"d. c #C67D33",
"f. c #C26F2D",
"g. c #C15E0A",
"h. c #875C4B",
"j. c #886849",
"k. c #987747",
"l. c #886957",
"z. c #9A7858",
"x. c #8C7058",
"c. c #A87845",
"v. c #B47D45",
"b. c #A57C54",
"n. c #856B65",
"m. c #8B7769",
"M. c #937C73",
"N. c #BD8428",
"B. c #BB8339",
"V. c #A8813D",
"C. c #BD8219",
"Z. c #CA831B",
"A. c #D39D1A",
"S. c #CC8524",
"D. c #CD8925",
"F. c #CD852B",
"G. c #C48A2B",
"H. c #CC8B2C",
"J. c #C28428",
"K. c #D18B2B",
"L. c #C48233",
"P. c #CB8435",
"I. c #C38C34",
"U. c #CD8D33",
"Y. c #C48B3C",
"T. c #CB8B3C",
"R. c #C7843B",
"E. c #D18D36",
"W. c #CE9233",
"Q. c #C5933C",
"!. c #CA943B",
"~. c #C99739",
"^. c #D29235",
"/. c #D2943C",
"(. c #D39B3B",
"). c #CD922C",
"_. c #D7AC39",
"`. c #E2B93A",
"'. c #998348",
"]. c #97835C",
"[. c #A88747",
"{. c #B98646",
"}. c #A88959",
"|. c #BA9757",
" X c #B39152",
".X c #988668",
"XX c #948473",
"oX c #A98C62",
"OX c #A99365",
"+X c #B99867",
"@X c #B09471",
"#X c #B8A56A",
"$X c #BAA877",
"%X c #CB8C44",
"&X c #C48D48",
"*X c #CC9444",
"=X c #C89649",
"-X c #D39B43",
";X c #D39C4B",
":X c #D39446",
">X c #C89857",
",X c #D39957",
"<X c #C68C50",
"1X c #CBA64B",
"2X c #D6A64B",
"3X c #CBA358",
"4X c #D6A858",
"5X c #D2B459",
"6X c #C29B66",
"7X c #D49C63",
"8X c #C6A668",
"9X c #D6A768",
"0X c #C8AA77",
"qX c #D4A877",
"wX c #CAB67A",
"eX c #DAB779",
"rX c #D6B66A",
"tX c #E0B875",
"yX c #E4BF49",
"uX c #E4C34D",
"iX c #E7C146",
"pX c #E3C354",
"aX c #E6C759",
"sX c #EFD15E",
"dX c #E5C764",
"fX c #EDD36F",
"gX c #D1C07F",
"hX c #867C81",
"jX c #A6978A",
"kX c #B2AA92",
"lX c #AAA5A2",
"zX c #CAB585",
"xX c #D7B88A",
"cX c #C7BC96",
"vX c #D2B18B",
"bX c #D8BCA3",
"nX c #E1BC91",
"mX c #D6C689",
"MX c #CEC69A",
"NX c #D7CA96",
"BX c #DAD19C",
"VX c #CDC28D",
"CX c #EDDC89",
"ZX c #E4CA99",
"AX c #E2D29D",
"SX c #D7C9A6",
"DX c #D9D2A5",
"FX c #D2CCB4",
"GX c #E5D7A8",
"HX c #E6CEAA",
"JX c #F2E49F",
"KX c #D1D2D0",
"LX c #E1D5C8",
"PX c #EBE4D0",
"IX c #E2E2DB",
"UX c #B3B7C1",
/* pixels */
"                                                                                                                                ",
"                                                                                                                                ",
"                                                                                                                                ",
"                                                                                                                                ",
"                                    ..X.| ' T T _ ( P ( P W I I L J                                                             ",
"                                5.+.] ` ' ' | [ ] ) ( ( Y Y P P I P P I J L                                                     ",
"                            d.a.u.s.$.} | | [ [ ] [ | ` ' ( ) T Y T Y R P J I K                                                 ",
"                        P.P.P.d.s.s.d.R.y.y.u.g.+.t.+.{ [ [ y.| T T T T T Y Y I K K K                                           ",
"                    d.F.P.P.d.d.d.d.%X<X%X%Xf.f.s.y.t.g.g.[ [ ' ( T T ' T T T T R K K K I                                       ",
"                  Y.d.E.:XE.E.E.%XqX,X7X,X7X,X%XP.s.y.g.g.t.[ [ } ..| ....' ' ' T T K K K K L                                   ",
"                *XT.:X,X,X,X,X:X7X7X,X7X7XqXvXvXE.d.s.t.{ t.t.t.[ u.R.R.f.f.u.T T T R R K K K K                                 ",
"              :X:X:X,X,X7X9X,X:X,X9XP.<X,XnXbXnX7X%Xy.p.y.p.i.i.t.y.y.g.g.g.g.' ' T T R R R R R H w                             ",
"            2X/./.;X7X9XnXbXvX7X,XE.d.,Xf.vXFXbX%Xd.E.:XE.Z.i.i.i.i.p.p.t.g.g.[ ' ' T T T T T R I H H                           ",
"        K.E.(.^.E.:X4XnXHXbXnX9Xd.g.f.,XR.bXIXLXvX9X7XnX9XS.F.s.i.i.p.t.g.g.g.g.[ [ ' T T T T T R P H H                         ",
"        /./.-XK.K./.4XnXnX,X,X/.i.%XvX:X,XLXIXLXbXqX7XqX;XF.E.K.S.i.i.i.t.t.t.t.g.g.[ [ ' T T T T R I J H H                     ",
"        2X-X-X^.^.:X9X4X:XK.K.i.s.,X:Xi.,XvXxXbXbX7X,XE.U.E.E.K.K.i.i.i.p.p.t.t.g.g.{ [ ' ' ' ' T T T P K H w                   ",
"          2X;X:X-X2XtX2X^.^.K.(.2XK.Z.F.;X;X4X7X4X,XT.D.K.:XE.H.S.S.F.F.S.i.i.s.y.} t.} | ` ` ` ( ( T T P I H 4                 ",
"            :X:X9XtX4X(.(.^.(.4X^.s.K././.^./.K.H.U.S.^.K.U.:XU.S.F.K.U.K.s.S.a.s.y.y.t.} [ [ ` ( ' ( Y Y P I H 4               ",
"              /.:X9XtXrX2X(.-X-X^.^.F.;X-XW.K.D.Z.D.D.D.K.U./.!.S.K.F.F.E.E.%X,XP.s.a.i.t.} [ ` ) ` ` ( ( Y P K H 4             ",
"                a.^.xXAXZXtXnXZXtX2X-X/.(.^.D.S.D.D.H.Z.i.D.K.F.S.E.:XT.,X7X0XvX,XE.F.s.i.u.f.$._ ` ` ( Y ( ( Y J H             ",
"              ].#X#X5XeXHXZXHXHXZXrX4XH./.G.S.H.W.K.^.Z.Z.Z.K.S.S.;X=X*X*X>XqXvXqX%XP.F.s.s.a.s.' ) ] ' T ' ( Y P J H           ",
"            * x |.#X#X#XeXmXmXZXZXeX-XJ.W.H.!.W.H.W.2XH.Z.Z.^.^.D.-XU.U.*XqXxXSX7XR.%XP.%XP.y.y.] | | ` ( ' ` _ ( P H w         ",
"            $ d #X#X'.'.#X X5X5X4X4X4X!.G.J.-XW.H.W./.W.Z.Z.^.2X).W.U.S.I.>X9XvX,Xu...u.%XP.y.t.[ } ..` T _ ` _ ( W I L         ",
"            @ V $X$X'.1. X}.[.V.N.G.!.!.J.J.!.N.G.G.W._.D.Z.G.A.Z.Z.Z.t.@.@.i.s.$.t.| ] y.} ] { [ } $.$.' R T ' ( Y P J         ",
"            F B UXkX X'.2.'.1.'.[.1.#.B.G.Z.N.I.G.G.J.~.).Z.%.Z.p.p.Z.%.@.i.U.T.S.@.] ` { { ( @.{ s.a.R.f.X.X._ ( P I K L       ",
"            oXm.jX@X'.].'.:.l k :.1.1.1.>.o.6.N.J.G.C.J.G.Z.@.).D.W.(.i.&.J.T.:XT.s.) _ ` ' ` +.{ +.a.d.%Xd.d.7...I K I L       ",
"          M 9 7 z .XD #XOXO.l r j l =.m ,.,.;.;.3.5.8.N.N.%.&.I.I.(.(.C.%.8.L.I.R.L.$. .5.I ` +.@.{ s.L.d.d.d.d.a.X.K X.I       ",
"        m.Z V a B XXXXFXVX X~ l 6 e l 0 5 * i V j.;.*.=.>.6.%.B.G.G.).N.$.#.$. .3.7.7.d.P.X._ @.@.@.s.L.L.R.L.R.d.7.w...I       ",
"        M.z.j.l.XXF jXkXLXPXNX Xk e , % @ . . + : b ;.;.=.=.^ o.9.C.C.J.&.#.4.! ^ ^ ^  .5.^ W @.{ $.L.P.R.T.R.7X%Xd.a.5._ ^     ",
"      m.x.x.g n l.x.n.A OXPXPXPXmX6.6 @ . . . . . $ e l k Q ~ E E / / #.#.#.B.w.B.{.0.^ W L W %.i.a.Y.T.%X*X%X8X>XR.d.7.X. .    ",
"      l.h.v f 8 p a A A l.ZXJXJXfXA.X.q # @ > + . 7 '.OX'.:.~ E j j j ~ >.~ k ^ 3.0.w.4.^ w w  .8.%XT.T.T.%X%X6X,XR.R.d.$.w.    ",
"      S b v n h 8 a a V V #XJXCXfXaXA.X.3 a * X X 9 $XSXMXVXmXwX8X#X#XzXMXkXOXoX}.,.;.c < # 2 r ! 5.w.L.7.5.w.R.d.d.w.R.&X|.    ",
"    hXM.C C h a 8 p s : i j.CXCXCXfXdX2XX.3 # X . + XXMXMXMXmXBXDXBXMXMXFXFXDXDXMXMXcXXXd : 1 p 3 H -.7.5.4.$.5.5.7.7.d.<X[.c.  ",
"    n.n.M.Z n p 7 7 7 * = M AXCXfXdXaXdX2X .< @ . + B F kXMXrX8XBXDXDXlXMXFXFXDXDXFXUXkXlXkXkXkXx.g -.*.-.3.4.q.v.w.0.5.    >.<.",
"  z.jXA hXS V s i d ; $ = a mXCXsXaXpXpXaX5Xr @ + . O + B .Xk.#XIXIXFXlXFXIXIXPXFXDXFXFXFXFXFXjXh.-.-.1 d [.|.                  ",
"  z.jXn.Z n.A V s d i i = 9 3XaXuXuXpXpXpXdXr.2 O O . O + + > F UXIXlXUXKXPXKXDXVX#XkXkXkXXXl.~ %.).^.m S @X.X                  ",
"  z.M.Z S n.n.C V s s s i 7  XsXiXyXuXpXpXaX6.2 @ O X X o X X X B hXG F UXKX$XN m a : ; = u e._.`.`.`._.k.S A                   ",
"  b.h.V A n.n.l.Z V V B b 7 z.aXiXiXuXpX5XdXY.q # @ O O o X X + : * + A kXkXd + & - 7 f M <.,.c l u ~ _.1Xz                     ",
"  6Xv.m M M b S Z A C V C a k.aXiXyXyXuXpXpX2X! 2 @ @ o o o X X @ & O * : = * $ i 9 f 9 8 1 2 < , @ 2 / _.pX                    ",
"  6X{.Q M 5 $ i d 7 1 7 p 9 ,.aXiXuXuXpXpXaXdX=Xt 1 = = & & & & & & @ @ % $ $ $ 1 i 7 p p g *.g , # 2 L ).1X                    ",
"  >X[.0.z.0 $ ; z 7 % @ O $ z uXuXuXaXaXaXsXsXdXB.k 8 1 1 p g v i 1 - - # 2 1 p p n.C h f v ;.g % @ , H 9.5Xz.                  ",
"  9X=X{.b.m 5 x M 9 % @ X O ; 1XsXsXfXsXfXfXfXfXaX1XB.<.;.;.C V s 1 @ # 1 p s h h V h h h ;.g 7 $ * 9 r %.3Xg 2                 ",
"  6X,X{.>.E e 6 c ,.n % O . @ 2.1X1X1X3X1X XV.V.c.,.m v 8 - = = i i - # 2 V g h h h h.g n x 9 O % }.$X>.&.*X3 2                 ",
"  =X&X=X&X3.E q c =.5 1 8 $ O % 5 5 % % % % $ ; a v b z s i = @ & = i i f h C h h.C h.h.n f $ . % OXDX|.#.*.2 2                 ",
"  w.B.&XB.4.3.Q ~ ,.q 5 ,.D x x 0 5 , % % 5 5 % % ; 7 z s i = = - i h b h n ;.m h.h.b x v * . X # ,.$X].g 2 < t                 ",
"  7.{.<Xq.#.3.4.E =.t e :.}.$X}.'.k e 5 5 0 l 0 5 $ @ $ p d d d d h V h h n m n f p 9 8 7 + : a c k ,.c 3 t t u                 ",
"  e.{.&Xq.3.3.0.^ ! E k ~ 2.2.=.2.O.j e 0 l 2.[.[.,.9 + 7 z a 8 a d p f 8 1 1 ; # * 7 C m.OXkXVXxX@X;.u 6 t t *.                ",
"    w.B.{.0.4.0.q.3.^ o.E j E O.~ O.2.V.'.[.#XgXVXmXwX#X$XVXkX.X.XoXz.k.;.j.j.x.S m.@X$X$X XOX$X}.;.y q q *.<.                  ",
"    -.5.v.v.-.r.v.{.4.#.o.>.2.|.|.#XgXmXmXgXgXgXmXmXmXmXmXBXDXGXBXDXxXzXcXmX0XwXzX0X@Xb.z.-.<.k.;.k g U c 0.|.                  ",
"    -.-.-.v.e.w.0.[.|.0.6.^ 4.6XmXmXmXmXmXmXwXwXgXNXBXmX0X@X@XoX+X+Xb.oX6X+X#X8XvX0XoXk.*.t y *.*.y *.0.{.=X&X                  ",
"    *.*.*.e.w.q.6X+X0X>X6.#.o.o.#XBXBXmXmXCXNXgXgXmXgXV.j r e r U U U Q ^ ! ^ 3.e.*.U U H H L I ! r.5.B.=X>X{.                  ",
"      y U *.-.c.6X8XzX0X|.V.6.#.{.BXGXBXBXAXGX8X2.O.O.o.6.6.>.j L L L L W L L L L I L ! I ! X.#.w.{.>X>X3X8X<X                  ",
"        u g y -. X6X0XvXzX0X0X|.3XGXDXBXAXGXmX9.&.o.6.C.N.B.B.N.w.o./ #.3.4.#.^ ! ^  .%.9.8.Q.1XwXxX8X=X=X>X X                  ",
"          < < t *.c.6XzXzXzXzXxX0XDXDXDXAX0X9. .&.%.N.~.~._.~.N.B.N.G.~.=X=XQ.Q.Y.Q.Q.Q.~.-X1X8XeX9X:XY.&X|.                    ",
"                3 U c.6X0X0XwXxXqX0XVXxX6Xv.q.4.&.C.N.N.B.~.~.~.I.Q.Q.B.Q.Q.B.Q.Q.Q.Q.!.~.1X4X9X8X1X*XI.B.                      ",
"                      c.v.|.0XzXwX8X<Xv.v.<X<X7.#.&.C.C.N.C.C.N.I.I.J.J.8.N.=X|.3XQ.B.Y.~.*X1X1X*XQ.*XB.    e.-.                ",
"                            v.|.6X>X>Xv.0.w.5.$.%.%.9.%.&.&.%.s.%.@.@.&.#.&XvX0X>XN.Q.Y.!.I.L.=Xd.B.%X      0.e.<.              ",
"                                0.v.{.&Xq.&Xw.B.=XI.I.N.J.9.%.$.@. .&.$.$.6.<X{.w.N.T.I.I.a.Y.R.w.B.                            ",
"                                      3.e.&X&X<X=X=XY.G.%.$.%.%.$.#.%.i.9.9.7.7.7.s.9.7.9...B.{.q.                              ",
"                                            4.7.q.q.8.4.X.$.a.9.%.$.s.7.9. .$.5.$...$.5.3.r.0.                                  ",
"                                                    3.7.5.6.7.w.7.w.5.5.X.! I ! W U Q Q y                                       ",
"                                                                      t 3 3 3 < 3 <                                             ",
"                                                                                                                                ",
"                                                                                                                                "
};
