/* XPM */
static char *_a0458fb3598485ddc40769e99b82dfc8mzqs5W3ygBqq27k[] = {
/* columns rows colors chars-per-pixel */
"64 64 4 1 ",
"  c #763B36",
". c #EAA56C",
"X c #3F2631",
"o c #BD6C4A",
/* pixels */
"XXXXXXXX................................................XXXXXXXX",
"XXXXXXXX................................................XXXXXXXX",
"XXXXXXXX................................................XXXXXXXX",
"XXXXXXXX................................................XXXXXXXX",
"XXXXXXXXooooooooooooooooooooooooooooooooooooooooooooooooXXXXXXXX",
"XXXXXXXXooooooooooooooooooooooooooooooooooooooooooooooooXXXXXXXX",
"XXXXXXXXooooooooooooooooooooooooooooooooooooooooooooooooXXXXXXXX",
"XXXXXXXXooooooooooooooooooooooooooooooooooooooooooooooooXXXXXXXX",
"XXXXXXXXooooooooooooooooooooooooooooooooooooooooooooooooXXXXXXXX",
"XXXXXXXXooooooooooooooooooooooooooooooooooooooooooooooooXXXXXXXX",
"XXXXXXXXooooooooooooooooooooooooooooooooooooooooooooooooXXXXXXXX",
"XXXXXXXXooooooooooooooooooooooooooooooooooooooooooooooooXXXXXXXX",
"XXXXXXXXoooooooo        XXXX        XXXX        ooooooooXXXXXXXX",
"XXXXXXXXoooooooo        XXXX        XXXX        ooooooooXXXXXXXX",
"XXXXXXXXoooooooo        XXXX        XXXX        ooooooooXXXXXXXX",
"XXXXXXXXoooooooo        XXXX        XXXX        ooooooooXXXXXXXX",
"XXXXXXXXoooooooo        XXXX        XXXX        ooooooooXXXXXXXX",
"XXXXXXXXoooooooo        XXXX        XXXX        ooooooooXXXXXXXX",
"XXXXXXXXoooooooo        XXXX        XXXX        ooooooooXXXXXXXX",
"XXXXXXXXoooooooo        XXXX        XXXX        ooooooooXXXXXXXX",
"XXXXXXXXoooooooo................................ooooooooXXXXXXXX",
"XXXXXXXXoooooooo................................ooooooooXXXXXXXX",
"XXXXXXXXoooooooo................................ooooooooXXXXXXXX",
"XXXXXXXXoooooooo................................ooooooooXXXXXXXX",
"XXXXXXXXooooooooooooooooooooooooooooooooooooooooooooooooXXXXXXXX",
"XXXXXXXXooooooooooooooooooooooooooooooooooooooooooooooooXXXXXXXX",
"XXXXXXXXooooooooooooooooooooooooooooooooooooooooooooooooXXXXXXXX",
"XXXXXXXXooooooooooooooooooooooooooooooooooooooooooooooooXXXXXXXX",
"XXXXXXXXooooooooooooooooooooooooooooooooooooooooooooooooXXXXXXXX",
"XXXXXXXXooooooooooooooooooooooooooooooooooooooooooooooooXXXXXXXX",
"XXXXXXXXooooooooooooooooooooooooooooooooooooooooooooooooXXXXXXXX",
"XXXXXXXXooooooooooooooooooooooooooooooooooooooooooooooooXXXXXXXX",
"XXXXXXXX................................................XXXXXXXX",
"XXXXXXXX................................................XXXXXXXX",
"XXXXXXXX................................................XXXXXXXX",
"XXXXXXXX................................................XXXXXXXX",
"XXXXXXXXooooooooooooooooooooooooooooooooooooooooooooooooXXXXXXXX",
"XXXXXXXXooooooooooooooooooooooooooooooooooooooooooooooooXXXXXXXX",
"XXXXXXXXooooooooooooooooooooooooooooooooooooooooooooooooXXXXXXXX",
"XXXXXXXXooooooooooooooooooooooooooooooooooooooooooooooooXXXXXXXX",
"XXXXXXXXooooooooooooooooooooooooooooooooooooooooooooooooXXXXXXXX",
"XXXXXXXXooooooooooooooooooooooooooooooooooooooooooooooooXXXXXXXX",
"XXXXXXXXooooooooooooooooooooooooooooooooooooooooooooooooXXXXXXXX",
"XXXXXXXXooooooooooooooooooooooooooooooooooooooooooooooooXXXXXXXX",
"XXXXXXXXoooooooo        XXXX        XXXX        ooooooooXXXXXXXX",
"XXXXXXXXoooooooo        XXXX        XXXX        ooooooooXXXXXXXX",
"XXXXXXXXoooooooo        XXXX        XXXX        ooooooooXXXXXXXX",
"XXXXXXXXoooooooo        XXXX        XXXX        ooooooooXXXXXXXX",
"XXXXXXXXoooooooo        XXXX        XXXX        ooooooooXXXXXXXX",
"XXXXXXXXoooooooo        XXXX        XXXX        ooooooooXXXXXXXX",
"XXXXXXXXoooooooo        XXXX        XXXX        ooooooooXXXXXXXX",
"XXXXXXXXoooooooo        XXXX        XXXX        ooooooooXXXXXXXX",
"XXXXXXXXoooooooo................................ooooooooXXXXXXXX",
"XXXXXXXXoooooooo................................ooooooooXXXXXXXX",
"XXXXXXXXoooooooo................................ooooooooXXXXXXXX",
"XXXXXXXXoooooooo................................ooooooooXXXXXXXX",
"XXXXXXXXooooooooooooooooooooooooooooooooooooooooooooooooXXXXXXXX",
"XXXXXXXXooooooooooooooooooooooooooooooooooooooooooooooooXXXXXXXX",
"XXXXXXXXooooooooooooooooooooooooooooooooooooooooooooooooXXXXXXXX",
"XXXXXXXXooooooooooooooooooooooooooooooooooooooooooooooooXXXXXXXX",
"XXXXXXXXooooooooooooooooooooooooooooooooooooooooooooooooXXXXXXXX",
"XXXXXXXXooooooooooooooooooooooooooooooooooooooooooooooooXXXXXXXX",
"XXXXXXXXooooooooooooooooooooooooooooooooooooooooooooooooXXXXXXXX",
"XXXXXXXXooooooooooooooooooooooooooooooooooooooooooooooooXXXXXXXX"
};
