/* XPM */
static char *e276f427457147b995085d44f7142bdcYM0Oq4XxaXq78zEG[] = {
/* columns rows colors chars-per-pixel */
"64 64 217 2 ",
"   c None",
".  c #1D1D1F",
"X  c #1E1E21",
"o  c #211F23",
"O  c #242225",
"+  c #292426",
"@  c #272628",
"#  c #2C2629",
"$  c #2D2B2B",
"%  c #2B2824",
"&  c #312D2E",
"*  c #322B2C",
"=  c #302926",
"-  c #34322E",
";  c #3A312F",
":  c #342E32",
">  c #392F31",
",  c #323131",
"<  c #363433",
"1  c #3A3533",
"2  c #3E3935",
"3  c #3C3936",
"4  c #3C3939",
"5  c #3B3538",
"6  c #423A37",
"7  c #423E39",
"8  c #433C3A",
"9  c #4B3C3B",
"0  c #403736",
"q  c #45413D",
"w  c #49423F",
"e  c #53413E",
"r  c #4A3D41",
"t  c #4C4442",
"y  c #4E4945",
"u  c #544443",
"i  c #524D49",
"p  c #5B4A4B",
"a  c #564848",
"s  c #58524E",
"d  c #5D5855",
"f  c #654D4A",
"g  c #69524D",
"h  c #6B5554",
"j  c #6C5B5A",
"k  c #635558",
"l  c #725C5B",
"z  c #775A55",
"x  c #75574F",
"c  c #78645C",
"v  c #5B5960",
"b  c #6A5E62",
"n  c #796566",
"m  c #786C76",
"M  c #716A6E",
"N  c #815E56",
"B  c #84655B",
"V  c #88675A",
"C  c #846B65",
"Z  c #8C6D64",
"A  c #826B6B",
"S  c #8C6D6A",
"D  c #816667",
"F  c #916D65",
"G  c #946E6B",
"H  c #906563",
"J  c #8D726C",
"K  c #8D7064",
"L  c #937265",
"P  c #93746D",
"I  c #9B756C",
"U  c #9C7B6D",
"Y  c #97776A",
"T  c #876B75",
"R  c #8B7373",
"E  c #8A7877",
"W  c #927473",
"Q  c #957C75",
"!  c #9C7D74",
"~  c #9E7D79",
"^  c #95777B",
"/  c #996E70",
"(  c #A27C74",
")  c #A57C7B",
"_  c #A27672",
"`  c #9C857D",
"'  c #9B857C",
"]  c #A38375",
"[  c #A4847B",
"{  c #AC857D",
"}  c #A3897F",
"|  c #AB8A7C",
" . c #B18B7E",
".. c #B1857F",
"X. c #7A7388",
"o. c #987B83",
"O. c #937A8A",
"+. c #A97993",
"@. c #9D8982",
"#. c #9B8C8C",
"$. c #998486",
"%. c #99969C",
"&. c #9C8A90",
"*. c #A28682",
"=. c #A38B82",
"-. c #AB8C83",
";. c #A78A8A",
":. c #B38D84",
">. c #B98688",
",. c #AD9186",
"<. c #AC948C",
"1. c #A69188",
"2. c #B49486",
"3. c #B3958A",
"4. c #BB948C",
"5. c #BA9A8B",
"6. c #B79789",
"7. c #A89795",
"8. c #B59C93",
"9. c #BC9C92",
"0. c #BB9E99",
"q. c #B79895",
"w. c #AA829B",
"e. c #BBA195",
"r. c #BDA39B",
"t. c #B8A49B",
"y. c #9796A0",
"u. c #B69DA4",
"i. c #AD8DA5",
"p. c #92A4AA",
"a. c #97A8AB",
"s. c #93ACB3",
"d. c #97ADB4",
"f. c #95B2BC",
"g. c #9AB5BC",
"h. c #98B4BB",
"j. c #8FACB3",
"k. c #A5A7AC",
"l. c #BBA7A4",
"z. c #B5B0B4",
"x. c #C09E8E",
"c. c #C48C92",
"v. c #C29C94",
"b. c #C69896",
"n. c #D99A99",
"m. c #C4A394",
"M. c #C4A59C",
"N. c #CAA49B",
"B. c #C3A99F",
"V. c #CBA79A",
"C. c #D1A99E",
"Z. c #D29FA1",
"A. c #C1A5A2",
"S. c #C4ABA4",
"D. c #CCABA3",
"F. c #CAAEAC",
"G. c #CAA6A6",
"H. c #D1ACA4",
"J. c #D6ACAA",
"K. c #CCB3AB",
"L. c #C9B1A7",
"P. c #D4B4AB",
"I. c #DBB5AD",
"U. c #D5B6AB",
"Y. c #CAB7B7",
"T. c #D4BBB3",
"R. c #DCBCB3",
"E. c #D9B9B4",
"W. c #E1BBAF",
"Q. c #E1BDB3",
"!. c #E6B5B3",
"~. c #DBC2BA",
"^. c #DFC1B7",
"/. c #E2C1B5",
"(. c #E4C4BB",
"). c #E8C8BE",
"_. c #9DBAC2",
"`. c #9CBECD",
"'. c #A2BDC6",
"]. c #D4BAC5",
"[. c #9DC1CF",
"{. c #9EC3D0",
"}. c #A3C2CA",
"|. c #A4C0C6",
" X c #A2C5D3",
".X c #A7C9D7",
"XX c #ACCDDB",
"oX c #A5CCD8",
"OX c #B3D1DE",
"+X c #B3CCD6",
"@X c #B4D5E3",
"#X c #B8D9E6",
"$X c #BCDCEA",
"%X c #B8D8E5",
"&X c #BFE0EE",
"*X c #DDC5C5",
"=X c #CEC9CB",
"-X c #E5CCC5",
";X c #EBCCC3",
":X c #E8CBC8",
">X c #EDD3CB",
",X c #EDD1C8",
"<X c #F2D4CC",
"1X c #F3D9CF",
"2X c #EED5D1",
"3X c #F5DBD4",
"4X c #F9DDD5",
"5X c #FBDED9",
"6X c #F2D8D3",
"7X c #FBE1DA",
"8X c #C0DCE8",
"9X c #C2E2EE",
"0X c #C3E3F1",
"qX c #CAE9F6",
"wX c #D9E1E7",
"eX c #F7E6E4",
"rX c #F8F8FD",
/* pixels */
"                                            3 , , < 3 < ,                                                                       ",
"                                      7 < < , % $ - $ $ , $ ,                                                                   ",
"                                  3 , $ , 3 $ @ , % @ $ $ $ @ $ -                                                               ",
"                              7 3 < $ @ < < @ $ % $ O @ @ , , , < - %                                                           ",
"                          q 7 4 < $ $ $ @ @ O O @ @ O X @ @ @ $ # $ & $                                                         ",
"                        q 7 4 3 , $ $ $ $ O @ O O O O . O O O @ O % $ & -                                                       ",
"                      7 q 3 < - $ $ $ @ % @ O O X O . . X O X @ O O # $ = $                                                     ",
"                    7 7 q 3 3 < , , , $ O O O . X O O . X X X X X O O % O $ $                                                   ",
"                  w q 3 3 2 1 1 5 < < $ @ @ O . . X O o . . . o X X X @ o # # #                                                 ",
"                  q q 2 2 2 2 3 4 5 < $ $ @ O O O O X o o . o o X o X @ # # # # #                                               ",
"                w q 7 6 6 2 7 q 4 4 < $ $ $ O O O O o o o . o o X o o o o o # # # $                                             ",
"                q 7 7 7 7 7 7 7 8 5 < : , & + + O + + o o o o o o o o o o # # # # $                                             ",
"              q q 2 1 6 2 2 7 2 6 1 < < 1 * # = = % + o o * o # + o o o # # # # o : *                                           ",
"            w q 3 - ; 3 ; 2 7 2 2 1 1 1 1 ; * = $ % + # o * = o # + # o o : : : o * :                                           ",
"            q q ; - 1 3 - ; 7 6 1 1 2 6 0 1 = * * = % # # * * # * # # o # : : : # : : *                                         ",
"            q q 2 - < 1 - - q 6 6 1 7 6 8 0 0 ; ; ; ; * * 0 > * : * # # : 5 : 5 * : > :                                         ",
"          i y q 2 3 - , - 2 7 6 6 6 w w e e 9 6 q w e q e e 9 9 r 5 > > : 5 5 : # 5 0 > 1                                       ",
"          s y q q 3 3 3 - 2 7 6 9 9 e e p g f u e g x x x g g a r r r r r k r : > 8 8 5 6                                       ",
"            i w q q 4 3 ; 2 8 9 9 e f x x x x x g V V V V V B x h h f h l n r 0 r r r 8 9                                       ",
"            s y q q q q 4 7 w e e g N V V V V V V K ] ] ] ] Y L G l l D T n h p p r p r t                                       ",
"            d i w w w w w q w e e c V ] U L L L ] ] |  .2.4.| -.) S J [ ! P S n l k h p s                                       ",
"            d s y y y i i u y p x c K ] ] ] U U | 5.5.m.x.m.e.5.-.~ Q =.;.;.~ W T D n j k                                       ",
"              d i i i s g i p h x c c c V ] ] ]  .m.m.V.V.m.e.2.[ Q Q ` q.G.q.*.;.^ D n                                         ",
"              d s i s j l z n J K ' J K V V Y ]  .5.5.V.m.x.5.1.*.*.;.<.u.F.F.l.F.$.T E                                         ",
"                d s d n n n n J J J R R X.X.n T _ :.5.m.6.' Q P ^ ~ ;.q.0.u.u.i.k.&.o.                                          ",
"                  j v d b m E Q ' ] -.w.+.+.o.D b l R #.m J | { ) ..4.N.J.].*Xu.X.y.G.!.                                        ",
"                P C b v M R R ^ ^ ^ *.+.+.+.o.W k a j m m 8. .( / G o.q.G.].*X*Xi.u.J.n.                                        ",
"                K K c m O.E R n D M k m O.o./ P b Z  .-.O.V. ._ z a n 7.w.u.].eXz.Y.G.n.                                        ",
"                Z S c ' $.m T A T T l A ~ S G D h ) N.N.~ 8.4.{ I H ~ 4.m.E.-X>Xz.:Xl.!.                                        ",
"                F Z c E #.$.^ ^ o.) ! ( [ ( F z l { C.I.;.7.V.5.2.:.4.m.J.(.>X:X].6XF.;X                                        ",
"                G S n ' #.#.o.$.o.[ { -.-.] F c B ..C.Q.H.;.U.D.v.x.N.H.U.~.,X*X*X3XG.,X                                        ",
"                  J C ' $.%.` [ { -.:.3.:.! S l F ..V.W.Q.0.u.P.H.C.D.H.U.R.T.Y.eX2X!.                                          ",
"                  Q C ' ' #.@.=.-.-.,.,.[ P D Z G :.N.I.Q.Q.N.q.9.v.M.0.l.A.T.2XeX<X;X                                          ",
"                    R Q ` ' ` ' @.[ ;.*.~ Y G F I :.N.I.(.(.!.P.H.F.D.H.E.(.,X5X7X6X                                            ",
"                      Q ` [ } ,.3.4.3.:.[ L L I ( 4.C.!.;X;X(.!.I.Q.(.(.).;X<X5X5X                                              ",
"                        ' @.| ,.3.q.4.| ! F I [ { 4.Z.!.;X;X;X;XI.Q.(.).;X,X5X7X3X                                              ",
"                        @.` ` 1.-.3.2.| U / ( -.[ | v.H.I.D.n.(.W.W.).).,X1X5X7X3X                                              ",
"                          @.=.=.,.3.4.-.] U ] { _ _ :.v.H.v.4.J.W.W.).;X<X4X7X5X                                                ",
"                          @.@.} ,.,.3.6.6.| ] _ ( { 4.v.C.U.P.I.W.W.).;X1X5X7X5X                                                ",
"                            @.@.=.,.3.6.4.2.:.[ ) :.m.>.N.I.W././.(.).<X4X7X7X4X                                                ",
"                            @.=.=.,.,.,.2.,.-.[ _ >.c.4.n.V.U.W.W./.).<X4X5X5X1X                                                ",
"                            @.@.=.=.-.-.=.] ! ! ) ) >.c.b.V.P.I.H.U.(.1X4X5X5X                                                  ",
"                              @.` =.} [ ' ! ! ( ) ) ) ..c.c.c.b.4.x.W.<X4X4X3X                                                  ",
"                              @.@.@.} } [ [ P P / _ ) c.c.c.b.b.:.5.I.,X3X3X                                                    ",
"                                @.@.` =.-.;.! P ^ +.c.b.Z.J.I.R.I.P.^.;X1X1X                                                    ",
"                                @.@.` @.-.-.[ ' [ :.x.c.b.V.I.R.Q./.).;X,X                                                      ",
"                                ` ` ` $.=.=.;.-.,.3.5.9.v.V.U.R.R.(.-X,X;X                                                      ",
"                                ' ' ' ' @.[ -.-.3.9.r.N.D.H.I.R./.).;X;X,X                                                      ",
"                                ' ' ' ' ' ' } 1.8.e.t.U.P.R.^.(.(.).;X<X5X                                                      ",
"                                ' ' ' ' ' #.' } <.e.m.L.P.U.^.(.).;X<X5X                                                        ",
"                                } } ' ' ' ' ' } 1.8.m.B.V.K.E.~.).,X5X5X                                                        ",
"                                } } } } ' } 1.#.1.<.e.e.e.B.P.R.,X4X5X5XeXrX                                                    ",
"                                1.} 1.1.8.<.<.| 1.3.8.r.B.D.E.).6X4X4X5XeXrXrXrX                                                ",
"                              =.} 1.<.e.8.e.8.<.<.e.8.r.S.U.~.;X<X4X5X5XeXrXrX                                                  ",
"                              @.} <.5.e.t.t.e.e.8.8.r.r.B.K./.;X2X3X4X5X:X=XwX                                                  ",
"                            @.@.1.<.e.t.B.B.B.t.t.t.r.S.S.P.(.-X6X3X5X5X4X-X+X%X                                                ",
"                        y.#.@.@.1.8.t.B.L.L.L.t.r.r.B.B.l.~.~.>X3X7X7X3X7X6X=X&X&XqX                                            ",
"                      p.p.%.1.1.1.8.t.l.L.L.L.L.L.t.L.l.~.~.).>X1X1X3X3X3X7X~.OX#X$X0X0X9X                                      ",
"                  d.d.h.s.s.%.1.1.t.l.l.L.^.L.L.L.S.L.~.~.~.).1X1X3X3X3X7X7Xz.OX#X.X{.@X%X%X#X#X$X                              ",
"            d.a.p.'.'.g.h.s.a.7.8.t.l.L.L.L.~.L.K.L.t.l.~.~.).>X>X1X1X7X3X1Xl.OX#X`.{.XX X.XXXXXXX@X$XqX                        ",
"          [.d.d.s.|.[._._.h.j.a.t.t.l.L.L.K.K.~.~.L.L.L.T.~.-X>X>X2X6X6X1X~.7.OX#XoXoX{.{.@XXX X[.{..X%X$X                      ",
"        g.[.g.d.h.}.|.g.h._.h.j.k.t.L.K.K.K.K.Y.~.~.~.K.~.~.-X-X-X1X2X>X-Xl.%.%X@X.X{.{.XX$X%X X[.[. X.X@X%X&X0X                ",
"    a.g.|.|.g.s._.|.|.h._.[.h.j.j.g.z.~.K.K.K.~.~.~.~.K.~.~.-X-X>X2X>X-X~.,.a.#X@X.X{.@X$X0X%X X[.`. X.XXX@X@X%X0X8X            ",
"  a.d.[.}.|.h.s.h.|.[.h.f.g.g.h.f.f.h.z.~.K.L.K.~.~.~.~.~.*X-X-X-X>X-X~.S.7.+XOXXXoX@X&X&X&X%X.X[.`.[. XXXXX@X%X9X@X            "
};
