/* XPM */
static char *_517a6f6e5ae4b9f94d22ecdf285bea1kNFq0mOKMnwAZlAa[] = {
/* columns rows colors chars-per-pixel */
"64 64 177 2 ",
"   c None",
".  c #739B8E",
"X  c #759E90",
"o  c #7A9E92",
"O  c #73A293",
"+  c #7CA295",
"@  c #74A897",
"#  c #7CA698",
"$  c #74AC9B",
"%  c #7CAB9B",
"&  c #74B39F",
"*  c #75B6A2",
"=  c #7BB5A3",
"-  c #75BBA5",
";  c #7EB8A7",
":  c #76BDA8",
">  c #76C2AC",
",  c #78C4AD",
"<  c #77C6B0",
"1  c #79C5B0",
"2  c #77C9B1",
"3  c #7ACDB5",
"4  c #7DD1B6",
"5  c #7ED0BA",
"6  c #80A296",
"7  c #83A59A",
"8  c #88A79D",
"9  c #84AC9E",
"0  c #8DA89F",
"q  c #86AEA1",
"w  c #8BADA1",
"e  c #92AFA6",
"r  c #83B4A4",
"t  c #8CB2A6",
"y  c #85B8A7",
"u  c #87B7A9",
"i  c #8DB6A8",
"p  c #85BBA9",
"a  c #8BBBAB",
"s  c #91B2A7",
"d  c #94B6AA",
"f  c #99B5AC",
"g  c #94BAAD",
"h  c #9BB8AF",
"j  c #86BCB0",
"k  c #94BDB2",
"l  c #9CBDB3",
"z  c #A3BDB4",
"x  c #8CC0AE",
"c  c #8FC3B2",
"v  c #83CCB6",
"b  c #92C4B3",
"n  c #9DC2B5",
"m  c #93C8B7",
"M  c #94C4B9",
"N  c #9DC6B9",
"B  c #95CCBA",
"V  c #9ACCBB",
"C  c #85D2BB",
"Z  c #8AD5BD",
"A  c #97D4BF",
"S  c #9AD1BE",
"D  c #A3C1B7",
"F  c #AAC3B6",
"G  c #A4C4B9",
"H  c #ABC4BB",
"J  c #A4CABD",
"K  c #ADCABE",
"L  c #B1C4B6",
"P  c #B2C6BC",
"I  c #8FD7C2",
"U  c #91D7C1",
"Y  c #9DD5C2",
"T  c #95D8C3",
"R  c #9DD9C5",
"E  c #9EDCC8",
"W  c #AFC7C1",
"Q  c #A6CEC1",
"!  c #ABCCC1",
"~  c #A3CFCF",
"^  c #B2C7C0",
"/  c #B3CBC3",
"(  c #BBCBC6",
")  c #B0CECC",
"_  c #A3D4C3",
"`  c #ABD2C5",
"'  c #A2DAC7",
"]  c #ADD6C9",
"[  c #A3DDCA",
"{  c #AADDCC",
"}  c #B2D1C6",
"|  c #B3D5CA",
" . c #BAD3CB",
".. c #B4DACE",
"X. c #B9DACF",
"o. c #B7DDD0",
"O. c #BCDDD2",
"+. c #B2D9DA",
"@. c #A7E0CD",
"#. c #AAE0CE",
"$. c #AEE1D0",
"%. c #B3E4D3",
"&. c #BCE2D6",
"*. c #BCE6D8",
"=. c #BEE8DA",
"-. c #C2CDC9",
";. c #C2D5CE",
":. c #C9D1CE",
">. c #C5D6D1",
",. c #CBD6D2",
"<. c #C4DCD4",
"1. c #CCDBD6",
"2. c #C2DBDC",
"3. c #CCDFD9",
"4. c #D1DFDA",
"5. c #C1E2D6",
"6. c #C5E6DB",
"7. c #CAE4DC",
"8. c #C5EADD",
"9. c #C9E9DE",
"0. c #D1E6DF",
"q. c #D0E5DE",
"w. c #D1E3DD",
"e. c #C5E0E1",
"r. c #CAE0E2",
"t. c #CAEBE0",
"y. c #CDE9E0",
"u. c #CCEBE1",
"i. c #C9ECE0",
"p. c #CBECE1",
"a. c #CCECE1",
"s. c #CDEDE2",
"d. c #CDEDE3",
"f. c #CEEDE2",
"g. c #CEEDE3",
"h. c #CFEDE3",
"j. c #CDEEE2",
"k. c #CDEEE3",
"l. c #CEEEE3",
"z. c #CEEEE2",
"x. c #CFEEE4",
"c. c #CFEFE4",
"v. c #CEEFE4",
"b. c #CEEEE3",
"n. c #D9E5E1",
"m. c #D1EEE4",
"M. c #D3EFE6",
"N. c #D5EDE5",
"B. c #D7EEE6",
"V. c #D3EDE4",
"C. c #D9EDE7",
"Z. c #DBECE6",
"A. c #DBEDE8",
"S. c #D2F0E6",
"D. c #D7F1E8",
"F. c #DBF0E9",
"G. c #DAF1EA",
"H. c #DCF2EA",
"J. c #E3EFEB",
"K. c #E1EEE9",
"L. c #E0F3ED",
"P. c #E3F3EE",
"I. c #E1F4EE",
"U. c #E2F4EE",
"Y. c #E6F4EF",
"T. c #E2F3ED",
"R. c #E8F2EF",
"E. c #E7F4F0",
"W. c #E9F4F0",
"Q. c #E9F7F2",
"!. c #EFF4F3",
"~. c #EBF7F3",
"^. c #F2F6F5",
"/. c #F1F7F5",
"(. c #F4F9F7",
"). c #F4FAF8",
"_. c #F8FBFA",
/* pixels */
"                                                                                                                                ",
"                                                                                                                                ",
"                                                                                                                                ",
"                                                                                                                                ",
"                                                                                                                                ",
"                            + d h z z D G H D n c u 9 O . O + + o 7 s z /  . .( ^ F l f s                                       ",
"                        # p B 7.C.B.B.B.m.8.$.B u i n ` X.<.q.q.q.3.;./ z D <.C.T.E.W.!.4.                                      ",
"                    . = T [ V 8.l.p.l.p.%.Y p g ! 5.9.S.l.S.j.S.v.B.F.T.J.;.t l 5.v.v.T.^.F                                     ",
"                    * 3 R [ B 9.l.l.i.%.B r J | 6.l.l.l.l.p.l.l.l.l.l.l.m.9./ h d 5.l.m.).;.                                    ",
"                  O > 4 T [ N 9.l.l.*.V r b ` &.6.l.l.l.l.l.l.l.l.l.l.9.8.*.$.| D g 8.l.Q.1.                                    ",
"                  @ < 3 U [ J 9.m.8.' r c J O.L L 6.l.l.l.l.l.l.l.l.i.K L O.%.#.| d ` m.I.4.                                    ",
"                  O < 4 U @.{ j.l.%.x u N 6.6.F F 6.l.l.l.l.l.l.l.l.l.K F 5.9.#.$.n h 9.T.>.                                    ",
"                  O > 3 U E ' X.O.' y b ..v.l.9.i.l.l.l.l.l.l.l.l.l.l.l.9.l.l.*.{ ` t 6.T./                                     ",
"                  . : 2 x = r d i % y N 9.l.l.l.v.l.l.l.l.l.l.l.l.l.l.l.l.l.l.9.#...s n / e                                     ",
"                    @ $ ; B ' 5.] p x Q l.d.l.l.l.l.l.l.l.l.l.l.l.l.l.l.l.l.l.l.%.#.n g d                                       ",
"                    X : C Y [ O.V p b ] m.d.l.l.l.l.l.l.l.l.l.l.l.l.l.l.l.l.l.l.*.$.J K P                                       ",
"                      * a ^ N ..m y b ..v.l.l.l.l.l.l.v.l.l.l.l.l.l.l.l.l.v.l.l.=.@.! G H                                       ",
"                  7 h h P ,./ J b r B ..v.l.l.l.l.l.p.v.l.l.l.l.l.l.l.l.l.v.p.l.i.@.` n H                                       ",
"                  0 -.-.( ,.( G b r B O.v.l.l.l.l.l.l.l.l.l.l.l.l.l.l.l.l.l.l.l.8.[ ` n F                                       ",
"                    o $ % z k Q k r B ..m.l.l.l.l.l.l.l.l.l.l.l.l.l.l.l.l.l.l.l.8.$.` z G                                       ",
"                      - 2 A Y ' c r B ..v.l.l.l.l.l.l.l.l.v.l.l.l.l.l.l.l.l.p.v.8.@.` n z                                       ",
"                      * 4 [ [ [ x r m ] v.l.l.l.l.l.l.l.d.d.d.l.l.l.l.l.l.l.v.j.=.@.` D G                                       ",
"                      & 4 R [ E c y c ` l.l.l.l.l.l.d.d.d.m.l.l.p.l.l.l.l.l.v.v.=.@.Q G F                                       ",
"                      & 4 T @.E c u x J l.l.l.l.l.l.m.l.l.l.l.l.v.l.l.l.l.l.l.v.*.$.J W z                                       ",
"                      $ 3 U @.[ b c y V 9.j.l.l.l.l.l.l.l.l.l.l.v.p.l.l.l.l.l.l.%.#.G  .D                                       ",
"                      @ 2 A [ @.m b r V 5.l.l.l.l.l.l.l.l.l.l.l.v.v.l.l.l.l.l.l.%.%.n  .z                                       ",
"                      O 2 Z [ @.V m y m ..l.l.l.l.l.l.l.l.p.l.l.l.l.l.l.l.l.l.p.$.*.d 1.f                                       ",
"                      O > Z E [ V b c x ` l.l.l.l.l.l.l.l.l.l.l.l.l.l.l.l.l.l.p.%.O.g w.e                                       ",
"                      . : C E [ ' b A y S 7.l.l.l.l.l.l.l.l.l.l.l.l.l.l.l.p.v.i.*.J J w.7                                       ",
"                        * 5 E [ ' g R y m ..l.l.l.l.l.l.p.l.l.l.l.l.l.l.l.l.v.8.*.d <.>.                                        ",
"                        $ 4 T [ [ b ] m p ` 9.l.l.l.l.l.l.l.l.l.l.l.l.l.l.l.l.l.J D B.W                                         ",
"                        O > I @.[ m ] [ r V X.l.l.l.l.l.l.v.l.l.d.9.9.9.i.l.l.} d 7.9.s                                         ",
"                          * I [ [ B ` %.B y _ 5.m.l.S.9.&.` G n s t 9 9 9 h J t O.n.| o                                         ",
"                          O v [ [ V J 8.@.c i H &.l...n d d i t q 9 9 t t t t d z l w X                                         ",
"                            $ R [ ' N 9.*.[ m r t d i s k J | 5.6.6.9.9.7.9.7.9.7.7.2.O. .F k w o                               ",
"                              # m _ N 9.S.%.@.R a . g | 8.l.l.8.| N g g g a i y a k n Q  .7.n.n.3./ h +                         ",
"                                . # 9 n J K m m u J 9.S.l.9.! d a B Y Y R R R 3 < < : : = = a K 9.H.J.4.z 6                     ",
"                                  r B x b n u % g S.j.j.H.} m R [ [ [ [ [ [ [ U 3 5 3 3 3 3 < - i 6.m.T.^.>.8                   ",
"                                  # Y @.%.j.%.B 9 &.S.l.H. .B [ [ [ Y M b k k p : : 2 3 3 4 3 > y 6.d.d.H._./                   ",
"                                    x [ @.=.*.V # t ` 9.S.C./ g b a k ) 2.r.e.+.~ M = - > - = a O.v.d.d.m.~.z                   ",
"                                    # A [ #.8.Y r B u i J 5.C.Z.7. .^ z D l n l k k d u b J O.p.v.y.v.M.Z.K o                   ",
"                                      % V [ @._ r ' [ V a r t n  .7.C.A.l.9.9.6.t.9.t.d.v.S.m.B.M.N.3./ f F 7                   ",
"                                        # b Y R r A [ [ [ ' V N k t t k G ! } ..O.O.O.o.O. .} W z k h G w.,.o                   ",
"                                          . # r O a [ [ [ [ @.#.9.i.O.| J n k g i t s t s k l W  .6.i.v.E.z                     ",
"                                                  # Y [ [ [ [ [ %.9.v.m.v.v.l.l.y.i.i.t.d.y.v.v.v.l.d.A.4.6                     ",
"                                                    r [ [ ' [ [ [ %.9.m.l.l.l.l.x.y.v.v.y.v.v.v.v.d.m.J.h                       ",
"                                                    . p ' [ [ [ [ [ #.8.l.l.l.l.v.y.v.y.v.v.v.v.d.v.H.K .                       ",
"                                                    p r r _ [ [ [ ' [ [ %.8.l.l.v.v.v.v.v.v.d.y.v.N.P o                         ",
"                                                    a [ a r A [ [ [ [ [ [ #.*.i.l.v.j.v.l.p.m.l. .g o                           ",
"                                                    x [ [ _ Q Y [ [ [ [ [ [ [ %.8.j.v.j.p.6.| g +                               ",
"                                                  . b @.[ #.9.*.{ [ [ [ Y V B c b k g d t # X                                   ",
"                                                  O A [ [ @.8.v.i.%.[ [ [ E Y B m c u .                                         ",
"                                                  # Y [ [ [ 8.j.l.p.8.*.%.%.%.%.%.*...+                                         ",
"                                                  r [ [ [ @.8.j.l.l.v.v.p.l.p.l.v.l.9.8                                         ",
"                                                  x [ [ [ [ 9.j.l.l.d.v.l.d.l.l.l.l.B.z                                         ",
"                                                  b @.[ [ { p.j.d.l.l.d.l.l.l.l.l.l.v.>.6                                       ",
"                                                  u [ [ [ #.p.l.N.d.p.v.l.l.p.l.d.d.m.R.f                                       ",
"                                                  O b ' [ $.l.l.l.l.l.l.p.v.m.D.T.Q.).Z.w                                       ",
"                                                    . r c { p.l.v.D.F.H.H.Q.~.^.R.n. .w                                         ",
"                                                        . # t g D ! `  .} W D g w o .                                           ",
"                                                                    . . .                                                       ",
"                                                                                                                                ",
"                                                                                                                                ",
"                                                                                                                                "
};
