/* XPM */
static char *e30b3511dc67448ebe48181068d0c2d3TGkZW0W5OaZ9vNAG[] = {
/* columns rows colors chars-per-pixel */
"64 64 154 2 ",
"   c None",
".  c #0F0F11",
"X  c #100F11",
"o  c #131315",
"O  c #161619",
"+  c #17181A",
"@  c #1B1B1B",
"#  c #1F201F",
"$  c #21211E",
"%  c #2A231D",
"&  c #1E1F21",
"*  c #1F2021",
"=  c #242422",
"-  c #2A2623",
";  c #272826",
":  c #2A2A26",
">  c #2D2D2A",
",  c #322E2C",
"<  c #2F312F",
"1  c #33312E",
"2  c #2B2E32",
"3  c #2F3132",
"4  c #353432",
"5  c #3A3632",
"6  c #363834",
"7  c #3C3936",
"8  c #32363A",
"9  c #3C3C3A",
"0  c #443D35",
"q  c #423E3B",
"w  c #3F403E",
"e  c #4A4137",
"r  c #43413E",
"t  c #4B433B",
"y  c #50473D",
"u  c #363B42",
"i  c #393E43",
"p  c #3C4146",
"a  c #3C434D",
"s  c #454543",
"d  c #494743",
"f  c #474944",
"g  c #4A4A45",
"h  c #4D4D4B",
"j  c #464C4C",
"k  c #524C44",
"l  c #504E4A",
"z  c #4F504E",
"x  c #53524D",
"c  c #434D52",
"v  c #4C5156",
"b  c #555554",
"n  c #595755",
"m  c #5A5956",
"M  c #56575A",
"N  c #5C5C5C",
"B  c #605F5C",
"V  c #5E605F",
"C  c #61615E",
"Z  c #6A665C",
"A  c #5D5E61",
"S  c #5F6160",
"D  c #5D6677",
"F  c #646462",
"G  c #676864",
"H  c #6A6A66",
"J  c #656769",
"K  c #66696A",
"L  c #6B6D6C",
"P  c #726D64",
"I  c #6E706E",
"U  c #7C7566",
"Y  c #72726E",
"T  c #6D6F70",
"R  c #636A74",
"E  c #6F7170",
"W  c #737474",
"Q  c #797772",
"!  c #767876",
"~  c #7C7A74",
"^  c #777779",
"/  c #75797A",
"(  c #7C7C7C",
")  c #817F7B",
"_  c #7F807E",
"`  c #84827C",
"'  c #7D7F80",
"]  c #7E8282",
"[  c #7E8588",
"{  c #828382",
"}  c #888682",
"|  c #8B8A86",
" . c #828789",
".. c #858B8D",
"X. c #8B8C8C",
"o. c #8F908C",
"O. c #92918D",
"+. c #878F91",
"@. c #8B8E91",
"#. c #8E9293",
"$. c #939595",
"%. c #9A9995",
"&. c #939699",
"*. c #95999A",
"=. c #9A9C9D",
"-. c #A3A29F",
";. c #9A9EA1",
":. c #9EA1A2",
">. c #A3A4A4",
",. c #A5A8A7",
"<. c #A9AAA6",
"1. c #A3A7A8",
"2. c #A6AAA9",
"3. c #A7ABAC",
"4. c #A9ABAA",
"5. c #ACADAB",
"6. c #AFB0AE",
"7. c #B1B2AE",
"8. c #AAAFB1",
"9. c #AFB1B1",
"0. c #B3B5B3",
"q. c #B7B9B5",
"w. c #B8B9B7",
"e. c #B6B8B8",
"r. c #BBBDBB",
"t. c #BDC0BF",
"y. c #BEC1C0",
"u. c #C1C5C5",
"i. c #C2C6C6",
"p. c #C3C5C4",
"a. c #C6C8C7",
"s. c #CBCBC6",
"d. c #C7C9C9",
"f. c #C8CCCD",
"g. c #CACCCB",
"h. c #CDD0CF",
"j. c #CED2D3",
"k. c #CDD1D1",
"l. c #CDD1D0",
"z. c #D2D6D7",
"x. c #D2D6D5",
"c. c #D1D5D4",
"v. c #D4D8D7",
"b. c #D2D6D8",
"n. c #D5D9D8",
"m. c #D6DADA",
"M. c #D6DAD9",
"N. c #D6DAD9",
"B. c #D9DCDB",
"V. c #D9DDDC",
"C. c #D9DDDE",
"Z. c #DDE1E3",
"A. c #DFE3E6",
"S. c #E0E3E3",
/* pixels */
"                                                                                                                                ",
"                                                                                                                                ",
"                                                                                                                                ",
"                                                                                                                                ",
"                                      A.Z.t.w < < > : $ : : % ; ;                                                               ",
"                              S.Z.m.V.x.f.[ ; # # # # # # # + # @ @ = @ # @ @ O o o J 8.:.&.+.                                  ",
"                            c.B.m.N.j.f.y.[ ; * # # # # # # # # + # $ @ O O o o o . A :.&.+.] / L                               ",
"                            r.V.m.N.j.k.y.1.< * # $ # # # $ % # $ ; = @ @ O O . o . S :.&.+.] / K N                             ",
"                            0.V.N.N.j.f.y.*.< * : $ $ $ : f f w 9 f s 4 O O O o X X F >.*.+.[ / K j                             ",
"                          k 5.V.N.x.j.f.y.;.< ; = = : $ $ $ $ $ # $ ; # O + o X X X J >.*.+.[ / L s                             ",
"                          t 4.V.N.x.k.f.y.:.8 ; : ; = = $ $ $ $ # $ = O + + o . o o J 1.*.+.[ / L p                             ",
"                          t ,.V.N.x.j.f.f.:.< ; : : : : $ $ $ $ $ $ = + O O & o o o K 1.*.#.../ L 9                             ",
"                          t >.B.N.x.k.f.y.*.< = $ ; ; # $ @ $ @ @ $ = + @ @ & o o o K 2.*.#.../ I 9                             ",
"                          t -.B.N.x.k.f.y.1._ w # w 8 # $ @ @ @ @ $ = @ @ @ u o o o L 2.;.#.../ I 8                             ",
"                          y =.M.N.x.k.f.y.q.[ c * a w # # $ # @ $ = = + O * a O O O L 2.*.#.+.' I 7                             ",
"                          e %.B.N.x.k.k.y.3.8 # * p u # $ $ @ @ - ; ; @ @ @ a O o O E 3.;.&.+./ E 9                             ",
"                          e %.B.v.c.l.g.i.,.4 * * p u @ # # # # ; ; ; @ + & a O O O E 3.=.&.+.' I 9                             ",
"                          e %.M.M.c.c.g.i.4.6 @ * 8 u @ # # # # : ; = @ + * a O o O E 5.:.*.@.' E 6                             ",
"                          y %.M.M.c.c.g.a.5.6 @ # w w $ # = = ; : : ; + @ * a O o O W 5.:.*.#.] T 3                             ",
"                          y O.v.v.c.g.g.a.9.6 @ # w w = ; ; : : < > ; @ + * a O O + W 5.:.*.#.] I : o                           ",
"                          k o.x.x.z.l.g.a.8.6 # $ w w = : : : > > : : @ + = a O o + W 5.:.=.#.] T > o                           ",
"                          y } B.n.z.l.g.a.0.7 # = < w ; : > > > > : % @ + @ 3 o O + ^ 5.:.=.#.{ W l                             ",
"                          0 ) M.v.z.k.g.a.0.9 * = : > > : : > : $ > ; # @ O + . O + ^ 5.;.=.@.] !                               ",
"                          0 ~ x.z.c.k.g.a.0.9 = $ z _ > > > > > 6 : $ @ @ 2 R & o + / 5.>.;.#.{ !                               ",
"                          0 Y x.x.c.h.g.a.0.w = = v S < > 1 > 6 c > # @ o > D @ o + ^ 5.>.=.@.{ !                               ",
"                          - F c.x.c.h.g.a.q.s $ ; < < > > > 1 6 6 < # @ @ @ * o O + ^ 5.>.=.@.{ !                               ",
"                          - B c.c.c.h.g.a.q.f $ ; : > > > > > : : = # + + + O . o + ^ 5.-.=.#.{ !                               ",
"                          % B h.z.z.l.g.a.q.f % : : : > > > > % ; $ # @ + + . . o + ' 5.>.;.#.{ !                               ",
"                          % P c.c.g.y.5.=.| n y y f y y f f e w t r w e r w 7 7 9 9 L }  .X.@.{ !                               ",
"                            | c.r.$.H m C Y ) ` ` ` ` _ _ _ _ _ _ ~ ~ ` ~ _ ` _ ^ Q I b q j N T !                               ",
"                              r.L q 0 t O.7.<.<.6.q.q.5.<.<.<.<.<.<.5.<.6.7.7.5.,.>.>.{ r : , 9 F                               ",
"                              ) 0 7 7 x 7.r.7.7.7.t.q.-.<.7.<.<.6.7.5.5.6.q.w.>.>.4.>.#.h > > > s                               ",
"                              k q 7 q B w.s.t.q.r.5.-.=.7.q.0.7.0.0.q.q.w.5.-.O.>.9.4.$.h , 1 , 4                               ",
"                              q q q e m %.%.| _ ` ` ~ Q ( } | | o.` | ` } ` P G ^ { { ^ g , 1 1 4                               ",
"                              g d t t   r 7 5 $ > U Z 4 @ ,   q e 5 1 $ - U P 7 & , 4 , 1 1 4 9 r                               ",
"                              x z           6 1 1 y t , -         < > % , x g 4 - - , , 1 9 u q s                               ",
"                              n n           r x x 7 7 7 r 7 1 1 1 1 1 e 7 5 5 5 0 , 1 4 4 r s g j                               ",
"                              F V C C C V x l Z U F C m x r 7 7 r r r x x x k g d u 9 9 r g v h b                               ",
"                              L G Z G C C V m Z Y I H Z C x t r t h g m m m n x h r r s s v b b b                               ",
"                              W L G G Z C Z V H Y I I H H m z g g x k C C N m m b g s d h b n b x                               ",
"                              E I F G G Z G V I ! L L H Y Z B m V C m Z H G G F N b b b n b n N M                               ",
"                              E I L F Z S G H C G N m N N m N m C C V N m b b M b b M M M B M M m                               ",
"                              T I I F G G C G V m b h j j z N M C C V m b h h b z b m M M M M b m                               ",
"                              H L L G F C G Z V m b h g g l m m C C V V m b h h h x n M b N N N m                               ",
"                              J K L L G H S G V N n h h h h m m V C N B m b z h h b n M n n N n b                               ",
"                              L K K L G G G G V N m n n b b m m C C C N N b m b v b M M M M N M m                               ",
"                              L J K I L G F F Z N N N N N N N N Z G F F C N B N B B A N N A N M m                               ",
"                              H J J L I G F F S C V N N N N C F G G F N C F F A A N A A A N M B m                               ",
"                              L J J T T J F S S A A B B N S F S F H J B A Z A F A B A A A A A M m                               ",
"                              L J J L T J B A A A C B A V N N S B J F F Z A F A A B A A A A A M M                               ",
"                              L J J J J J F B A S S A A V S S S B B F J J A A F B B A A A N A A m                               ",
"                              L J J T J J J B B S C S S S S V N A A B B J J F F A A A A A A A A m                               ",
"                              L J T J J J J J J F S S B F A N F S A C A F J J A F A A A A A A A N                               ",
"                              T T R T T T T J J J F F B F B S F A S A C A J F J F A A A A A A A m                               ",
"                              $.%.%.%.&.$.@.@.@.} { ) ' ( ( ` ) ) ) ) { ' { } ' { ' ) ^ ^ ^ ' T J                               ",
"                              s.d.d.d.p.y.e.9.9.8.5.8.5.5.5.5.8.6.6.6.6.9.5.9.9.5.5.5.4.;.&.@.( W                               ",
"                              s.s.d.d.a.r.0.9.5.5.5.5.5.<.<.<.<.5.5.5.5.5.5.6.6.8.5.5.>.;.;.@.( W                               ",
"                              s.s.d.a.y.r.0.5.5.5.<.5.<.<.<.<.<.<.4.<.<.<.5.6.5.5.6.5.>.;.;.@.( T                               ",
"                              s.s.d.a.y.r.0.5.5.4.5.4.5.4.5.5.5.5.5.5.6.5.9.6.9.8.5.3.>.;.;.X.( W                               ",
"                              s.d.d.a.y.r.0.5.4.4.<.<.<.5.<.5.5.5.5.5.5.5.5.5.5.5.6.3.>.;.;.@.^ T                               ",
"                                s.d.d.y.e.0.5.4.4.4.<.4.<.<.5.<.5.6.6.5.5.7.5.7.5.5.5.>.;.;.@.' W                               ",
"                                d.d.a.p.y.0.5.5.4.<.4.<.<.<.<.5.<.5.5.6.5.5.5.7.6.6.5.>.=.&.@.^ I                               ",
"                                d.d.p.y.e.e.5.4.4.4.<.<.5.<.<.5.<.5.5.5.5.5.5.7.5.6.4.>.&.&.X.^ I                               ",
"                                d.p.p.p.e.9.4.4.<.<.<.<.<.<.<.<.<.<.5.5.7.5.7.5.5.5.4.>.=.&.X.^ L                               "
};
