/* XPM */
static char *_a3ee57d98de4452e6ed53e7894b00bftgSXEgL66Z5pi8DB[] = {
/* columns rows colors chars-per-pixel */
"64 64 4 1 ",
"  c None",
". c #3F2631",
"X c #8B9BB4",
"o c #C0CBDC",
/* pixels */
"                                                                ",
"                                                                ",
"                                                                ",
"                                                                ",
"                                                                ",
"                                                                ",
"                                                                ",
"                                                                ",
"                                                                ",
"                                                                ",
"                                                                ",
"                                                                ",
"            ........................................            ",
"            ........................................            ",
"            ........................................            ",
"            ........................................            ",
"            ........................................            ",
"            ........................................            ",
"            ........................................            ",
"            ........................................            ",
"            ........XXXXooooooooooooooooXXXX........            ",
"            ........XXXXooooooooooooooooXXXX........            ",
"            ........XXXXooooooooooooooooXXXX........            ",
"            ........XXXXooooooooooooooooXXXX........            ",
"            ........ooooooooooooXXXXXXXXoooo........            ",
"            ........ooooooooooooXXXXXXXXoooo........            ",
"            ........ooooooooooooXXXXXXXXoooo........            ",
"            ........ooooooooooooXXXXXXXXoooo........            ",
"            ........ooooooooooooXXXXXXXXoooo........            ",
"            ........ooooooooooooXXXXXXXXoooo........            ",
"            ........ooooooooooooXXXXXXXXoooo........            ",
"            ........ooooooooooooXXXXXXXXoooo........            ",
"            ........ooooXXXXXXXXoooooooooooo........            ",
"            ........ooooXXXXXXXXoooooooooooo........            ",
"            ........ooooXXXXXXXXoooooooooooo........            ",
"            ........ooooXXXXXXXXoooooooooooo........            ",
"            ........ooooXXXXXXXXoooooooooooo........            ",
"            ........ooooXXXXXXXXoooooooooooo........            ",
"            ........ooooXXXXXXXXoooooooooooo........            ",
"            ........ooooXXXXXXXXoooooooooooo........            ",
"            ............oooooooooooooooo............            ",
"            ............oooooooooooooooo............            ",
"            ............oooooooooooooooo............            ",
"            ............oooooooooooooooo............            ",
"                ................................                ",
"                ................................                ",
"                ................................                ",
"                ................................                ",
"                    ........................                    ",
"                    ........................                    ",
"                    ........................                    ",
"                    ........................                    ",
"                                                                ",
"                                                                ",
"                                                                ",
"                                                                ",
"                                                                ",
"                                                                ",
"                                                                ",
"                                                                ",
"                                                                ",
"                                                                ",
"                                                                ",
"                                                                "
};
